<?xml version="1.0" standalone="no"?>
<!DOCTYPE svg PUBLIC "-//W3C//DTD SVG 1.1//EN" "http://www.w3.org/Graphics/SVG/1.1/DTD/svg11.dtd" >
<svg xmlns="http://www.w3.org/2000/svg" xmlns:xlink="http://www.w3.org/1999/xlink" version="1.1">
<metadata>
Created by FontForge 20150824 at Tue May 24 00:08:04 2016
 By Everything Fonts
</metadata>
<defs>
<font id="icomoon" horiz-adv-x="1024" >
  <font-face 
    font-family="icomoon"
    font-weight="400"
    font-stretch="normal"
    units-per-em="1024"
    panose-1="0 0 0 0 0 0 0 0 0 0"
    ascent="960"
    descent="-64"
    bbox="0 -100 1360 999"
    underline-thickness="0"
    underline-position="0"
    unicode-range="U+0001-FFFD"
  />
<missing-glyph 
 />
    <glyph glyph-name=".notdef" unicode="&#xfffd;" 
 />
    <glyph glyph-name="glyph1" horiz-adv-x="0" 
d="M0 0v0v0v0z" />
    <glyph glyph-name="glyph1" horiz-adv-x="0" 
d="M0 0v0v0v0z" />
    <glyph glyph-name="uni0001" horiz-adv-x="0" 
d="M0 0v0v0v0z" />
    <glyph glyph-name="space" unicode=" " horiz-adv-x="512" 
d="M0 0v0v0v0v0z" />
    <glyph glyph-name="ntilde" unicode="&#xf1;" 
d="M222 392l472 -424q10 -12 24 -18t30 -6q14 0 28 6t26 18t17 26t5 30t-5 31t-17 25l-418 368l418 368q12 10 17 25t5 31t-5 30t-17 26t-26 18t-28 6t-29 -6t-25 -18l-472 -422q-12 -12 -17 -27t-5 -31q0 -14 5 -29t17 -27v0v0z" />
    <glyph glyph-name="ograve" unicode="&#xf2;" 
d="M996 -10l-28 -28q-10 -10 -23 -15t-27 -5t-27 5t-23 15l-248 266q-22 -14 -48 -25t-52 -17q-28 -8 -56 -11t-58 -3q-84 0 -158 30t-130 82q-54 54 -86 125t-32 151q0 82 32 154t86 128q56 54 130 86t158 32t158 -32t130 -86q56 -56 89 -128t33 -154q0 -28 -5 -56t-15 -54
q-8 -26 -20 -51t-28 -47l248 -266q10 -10 16 -22t6 -26t-6 -26t-16 -22v0v0zM406 848q-62 0 -115 -23t-93 -63q-40 -38 -63 -90t-23 -112q0 -58 23 -108t63 -86t93 -56t115 -20q60 0 114 20t94 56q42 36 65 86t23 108q0 60 -23 112t-65 90q-40 40 -94 63t-114 23v0v0z" />
    <glyph glyph-name="oacute" unicode="&#xf3;" 
d="M966 692h-586q-12 0 -23 4t-17 10q-8 8 -13 18t-5 20q0 12 5 22t13 16q6 8 17 12t23 4h586q12 0 23 -4t19 -12q6 -6 11 -16t5 -22q0 -10 -5 -20t-11 -18q-8 -6 -19 -10t-23 -4v0v0zM966 362h-586q-12 0 -23 4t-17 12q-8 8 -13 17t-5 21t5 21t13 17q6 8 17 12t23 4h586
q12 0 23 -4t19 -12q6 -8 11 -17t5 -21t-5 -21t-11 -17q-8 -8 -19 -12t-23 -4v0v0zM966 34h-586q-12 0 -23 4t-17 12q-8 6 -13 16t-5 22q0 10 5 20t13 18q6 6 17 10t23 4h586q12 0 23 -4t19 -10q6 -8 11 -18t5 -20q0 -12 -5 -22t-11 -16q-8 -8 -19 -12t-23 -4v0v0zM186 744
q0 -18 -7 -34t-21 -26q-12 -12 -29 -19t-35 -7q-20 0 -37 7t-29 19q-14 10 -21 26t-7 34t7 34t21 28q12 12 29 19t37 7q18 0 35 -7t29 -19q14 -12 21 -28t7 -34v0v0zM186 416q0 -18 -7 -34t-21 -28q-12 -12 -29 -19t-35 -7q-20 0 -37 7t-29 19q-14 12 -21 28t-7 34t7 34
t21 28q12 12 29 19t37 7q18 0 35 -7t29 -19q14 -12 21 -28t7 -34v0v0zM186 88q0 -18 -7 -34t-21 -28q-12 -12 -29 -19t-35 -7q-20 0 -37 7t-29 19q-14 12 -21 28t-7 34t7 34t21 26q12 12 29 19t37 7q18 0 35 -7t29 -19q14 -10 21 -26t7 -34v0v0z" />
    <glyph glyph-name="ocircumflex" unicode="&#xf4;" 
d="M882 -16q-6 -8 -15 -11t-19 -3t-19 3t-15 11l-64 66q-6 6 -10 15t-4 19t4 19t10 17q6 6 15 10t19 4t19 -4t15 -10l30 -32l94 98q6 6 15 10t19 4t19 -4t15 -10q6 -8 10 -17t4 -19t-4 -19t-10 -15zM848 158q-6 6 -14 11t-16 7q-8 4 -16 6t-18 2q-20 0 -37 -8t-31 -22
q-12 -12 -20 -30t-8 -40q0 -10 2 -20t6 -18t9 -16t11 -16l64 -66q4 -4 8 -7t8 -5h-748q-10 0 -19 4t-15 10q-6 8 -10 17t-4 19v0v0v0l16 98l112 148q30 16 43 20t25 4q10 2 27 6t53 20q76 32 100 45l24 13v98l-20 26l-28 94q-8 -2 -14 3t-10 13t-6 17t-2 19q0 8 -2 23t-2 29
t4 23t14 7q-2 18 -4 34t-2 28q-2 14 -2 26v20q4 28 18 56t38 50t57 37t73 17q48 -2 82 -17t56 -37t34 -50t14 -56q2 -8 1 -20t-1 -26q-2 -12 -4 -28t-4 -34q10 2 14 -7t4 -23t-1 -29t-3 -23q0 -8 -2 -18t-6 -18t-9 -13t-15 -1q-8 -70 -28 -96l-20 -26v-98l24 -12l100 -44
q36 -16 53 -20t27 -6q12 -2 25 -6t43 -20q4 -2 7 -4t7 -6h-1l-1 -2zM1016 52q6 -28 7 -47l1 -19q0 -10 -4 -19t-10 -17q-6 -6 -15 -10t-19 -4h-76q6 2 9 5l7 7z" />
    <glyph glyph-name="otilde" unicode="&#xf5;" 
d="M940 110l-32 -32l-230 230l26 26q14 14 30 22t34 8q18 2 34 -3t30 -17l108 -110q12 -14 19 -30t7 -32t-6 -32t-20 -30v0v0v0zM362 694q-6 -6 -15 -16t-17 -18l-232 232q10 12 19 20t15 14v0q12 12 28 19t32 7t32 -7t30 -19l108 -110q12 -12 19 -28t7 -34q0 -16 -7 -32
t-19 -28v0v0v0zM70 866l232 -234l-14 -14q-12 -12 -13 -27t7 -29q6 -16 18 -33t26 -33q2 -2 83 -82t83 -80q28 -24 50 -42t40 -28t31 -9t25 13l12 12l230 -230q-22 -20 -71 -35t-125 1q-78 16 -180 75t-230 187q-122 124 -177 221t-69 169q-16 70 -2 116t30 68q4 2 8 6t6 8
v0v0z" />
    <glyph glyph-name="odieresis" unicode="&#xf6;" 
d="M2 440v0v0q0 -2 -1 -3t-1 -3v0v0v-8q0 -12 4 -22t12 -18v0l362 -428q8 -10 21 -16t27 -6v0v0h12v2q10 0 17 4t13 10v0l534 490q10 10 16 22t6 26v0v406q0 14 -5 25t-13 21q-10 8 -21 13t-25 5v0h-406q-12 0 -24 -5t-20 -15l-490 -468q-8 -6 -12 -14t-6 -18v0v0zM854 874
q16 0 32 -6t28 -18t18 -28t6 -32q0 -18 -6 -34t-18 -28q-12 -10 -28 -17t-32 -7q-18 0 -34 7t-28 17q-10 12 -17 28t-7 34q0 16 7 32t17 28q12 12 28 18t34 6v0v0z" />
    <glyph glyph-name="divide" unicode="&#xf7;" 
d="M952 716l-170 170l74 66q8 6 19 5t19 -9l120 -120q8 -8 9 -19t-5 -19zM928 690l-512 -576q-12 -12 -28 -16t-28 2l-194 194q-6 12 -2 28t16 28l576 512zM206 28v0l-50 -50l-12 12l-26 -24q-10 -10 -22 -16t-24 -6q-14 -2 -26 2t-20 14q-10 8 -14 20t-2 24q0 14 6 26
t16 22l24 26l-12 12l26 24l24 26l56 120l176 -176zM82 52l-26 -24q-10 -10 -11 -23t5 -21q8 -6 21 -5t23 11l24 26z" />
    <glyph glyph-name="oslash" unicode="&#xf8;" 
d="M752 -64h-480q-16 0 -31 6t-25 18q-12 12 -18 27t-6 31v860q0 16 6 31t18 27q10 12 25 18t31 6h480q16 0 31 -6t25 -18q12 -12 18 -27t6 -31v-860q0 -16 -6 -31t-18 -27q-10 -12 -25 -18t-31 -6v0v0zM272 878v-860h480v860h-480zM792 796h-560v122h560v-122zM234 180
v-166h560v166h-560zM512 20q-16 0 -28 12t-12 30q0 16 12 28t28 12t28 -12t12 -28q0 -18 -12 -30t-28 -12v0v0z" />
    <glyph glyph-name="ugrave" unicode="&#xf9;" 
d="M984 640q-20 48 -47 89t-59 77q-34 36 -74 64t-84 48q12 10 25 18t29 12q14 6 30 9t32 3q38 0 73 -16t59 -42q26 -26 41 -62t15 -78q0 -16 -3 -33t-7 -31q-6 -16 -13 -30t-17 -28v0v0zM976 422q0 -48 -9 -94t-25 -88t-40 -80t-52 -70l64 -70q6 -6 10 -15t4 -19t-4 -19
t-10 -17q-6 -6 -15 -10t-19 -4t-18 4t-16 10l-68 74q-28 -20 -60 -37t-64 -27q-34 -12 -69 -18t-73 -6q-36 0 -72 6t-70 18q-32 10 -63 26t-59 38l-70 -74q-6 -6 -15 -10t-19 -4t-19 4t-15 10q-6 8 -10 17t-4 19t4 20t10 16l64 68q-28 32 -52 70t-40 80t-25 88t-9 94
q0 102 36 190t100 156q62 66 147 104t181 38t181 -38t147 -104q64 -68 100 -156t36 -190v0v0zM512 808q-76 0 -143 -30t-117 -82t-79 -123t-29 -151t29 -150t79 -122t117 -83t143 -31t143 31t117 83t79 122t29 150t-29 151t-79 123t-117 82t-143 30v0v0zM704 372h-192
q-10 0 -19 4t-15 12q-6 6 -10 15t-4 19v270q0 10 4 19t10 17q6 6 15 10t19 4t19 -4t15 -12q6 -6 10 -15t4 -19v-218h144q10 0 19 -4t15 -12q6 -6 10 -15t4 -21q0 -10 -4 -19t-10 -15q-6 -8 -15 -12t-19 -4v0v0zM42 634q-10 14 -18 28t-14 30q-4 16 -7 32t-3 34q0 42 15 79
t41 65q26 26 61 42t75 16q16 0 32 -3t32 -9q14 -6 28 -14t26 -18q-44 -20 -85 -49t-75 -65t-62 -78t-46 -90v0v0z" />
    <glyph glyph-name="uniE600" unicode="&#xe600;" horiz-adv-x="975" 
d="M928 537h-323q-16 0 -28 -11q-12 -12 -12 -29v-496q0 -17 12 -29t28 -12h323q17 0 29 12t12 29v496q0 17 -12 28q-12 12 -29 12v0v0zM908 61q0 -16 -12 -28t-28 -12h-202q-17 0 -29 12t-12 28v375q0 17 12 29t29 12h202q16 0 28 -12t12 -29v-375zM126 659h701v-41h-701
v41zM126 416h378v-40h-378v40zM126 537h378v-40h-378v40zM126 780h701v-41h-701v41zM893 616v234q0 15 -10 25q-11 10 -25 10h-763q-14 0 -24 -10t-10 -25v-799q0 -14 10 -24q10 -11 24 -11h392q5 -15 11 -28l14 -28h-466q-17 0 -29 12q-12 13 -12 30v898q0 17 12 29t29 12
h861q17 0 29 -12t12 -29v-305q-13 7 -27 12t-28 9v0v0z" />
    <glyph glyph-name="uniE601" unicode="&#xe601;" horiz-adv-x="1114" 
d="M954 148l-11 22l-8 12v0l-25 32q-16 20 -39 44q-23 25 -26 28l-57 51q-8 6 -16 9q-9 3 -15 4q-7 1 -13 1q-7 0 -13 -1q-22 -3 -43 -24q-22 -22 -30 -31l-6 -8l-8 -10q-4 -6 -9 -12t-10 -13q-6 -8 -18 -12t-22 4q-29 25 -62 57q-33 33 -66 79q-36 51 -57 91q-21 41 -30 77
q-1 3 2 11q3 9 10 11q10 3 17 4q8 2 14 4l18 4v0l19 5q4 2 7 3t5 2q4 1 8 3l15 6q1 0 2 1l4 2l9 6q18 12 26 31t4 38l-2 11q0 1 -5 22q-6 22 -16 51q-6 14 -13 32q-8 19 -16 35q-20 41 -38 59q-19 18 -20 19l-5 4v0l-9 6q-15 10 -33 13t-35 -1q-27 -5 -46 -14
q-20 -9 -39 -20l-5 -3q-56 -32 -90 -76q-34 -45 -36 -91q-2 -35 10 -88t35 -114q24 -62 57 -127q34 -66 76 -124q42 -59 93 -112q51 -54 102 -97q52 -43 99 -72q48 -30 82 -41l10 -2q6 -2 11 -3q50 -9 94 8q44 18 77 40q17 10 37 27q21 18 35 38q11 17 18 41q7 25 -4 48v0z
M887 97q-10 -15 -26 -28t-28 -21q-43 -27 -75 -35q-32 -9 -62 0q-27 9 -68 35q-42 26 -89 65q-48 40 -97 90q-49 51 -89 108q-40 56 -71 117q-32 62 -53 118q-22 57 -32 104q-11 47 -10 73q1 29 26 59q26 31 66 54l6 3q18 11 32 17q14 7 34 10q4 1 6 1q3 1 6 0q2 0 3 -1
l4 -2t5 -4q4 -3 5 -3q0 -1 12 -13q13 -13 28 -43q7 -14 14 -30q7 -17 11 -30q9 -25 14 -44t6 -19l1 -10v-2v0l-2 -2l-3 -2h-1l-2 -2q-7 -3 -10 -4q-4 -1 -7 -2q-2 -1 -5 -2q-4 -2 -10 -4t-12 -3l-14 -4q-7 -1 -16 -3t-19 -5q-37 -11 -50 -43q-14 -33 -8 -57q10 -43 33 -89
q24 -46 65 -102q35 -50 71 -85q36 -36 67 -63q9 -7 19 -12t21 -7q28 -5 53 7t39 29q6 7 11 14q6 7 11 13q3 5 6 9t6 7q11 14 20 22t14 10h3q2 -1 3 -1l51 -46q1 0 23 -23q22 -24 37 -43q13 -16 20 -26l7 -10l9 -16q0 -3 -2 -10q-3 -8 -7 -14v0z" />
    <glyph glyph-name="uniE602" unicode="&#xe602;" horiz-adv-x="985" 
d="M907 66v225q0 14 -10 24q-11 11 -26 11q-14 0 -24 -10q-11 -11 -11 -25v-230q0 -3 -2 -17q-2 -15 -16 -29q-16 -18 -48 -27t-77 -8v0h-14h-3q-2 1 -3 1v0l-93 -1l-36 1h-2q-1 -1 -2 -1h-256q-45 -1 -77 8t-48 27q-14 14 -16 28q-2 15 -2 18v230q0 14 -10 24
q-11 11 -25 11q-15 0 -25 -10q-11 -11 -11 -25v-225q0 -9 4 -38q4 -30 31 -60q27 -29 69 -44q43 -15 102 -15h9l294 1l122 -1q59 0 101 15q43 15 70 44q27 30 31 59q4 30 4 39v0v0zM963 573l-97 342q-3 12 -12 19q-10 7 -22 7h-89h-2q-1 1 -2 1h-504h-2q-1 -1 -2 -1h-89
q-12 0 -21 -7q-10 -7 -14 -19l-96 -342q-1 -2 -1 -4v-5q0 -37 11 -66t32 -49q27 -25 56 -31q30 -6 43 -6h7q13 0 42 6q30 6 56 31l5 5v0l5 6q19 -23 46 -35q28 -12 61 -13h5q14 0 43 6t56 31l5 5v0l5 6q19 -23 46 -35q28 -12 61 -13h5q14 0 43 6t56 31l11 11q19 -23 46 -35
t60 -13h6q13 0 42 6q30 6 57 31q21 20 32 49t11 66v4v0l-1 5v0v0zM873 501q-15 -14 -33 -16q-19 -2 -20 -2h-3q-23 0 -38 9t-24 28q-8 16 -9 30q-2 15 -2 16v-1h-1q-1 14 -11 24t-24 10q-15 0 -25 -10q-11 -11 -11 -25q0 -22 -5 -37q-5 -16 -16 -26q-15 -14 -33 -16t-20 -2
h-2q-23 0 -38 9t-25 28q-8 16 -9 30q-2 15 -2 16v-1q-1 14 -11 24t-24 10q-15 0 -25 -10q-11 -11 -11 -25q0 -22 -5 -37q-5 -16 -16 -26q-15 -14 -33 -16t-20 -2h-2q-23 0 -38 9t-25 28q-8 16 -9 30q-2 15 -2 16v-1q-1 14 -11 24t-24 10t-24 -10q-11 -10 -12 -24v0v1
q0 -1 -1 -15q-2 -15 -10 -31q-9 -19 -24 -28t-38 -9h-3q-23 0 -38 9t-24 28q-6 12 -8 23q-3 11 -3 17l87 310h637l88 -311q0 -19 -5 -33q-6 -15 -15 -25v0v0z" />
    <glyph glyph-name="uniE603" unicode="&#xe603;" horiz-adv-x="0" 
d="M0 0v0v0v0v0z" />
    <glyph glyph-name="uniE604" unicode="&#xe604;" horiz-adv-x="0" 
d="M0 0v0v0v0v0z" />
    <glyph glyph-name="uniE605" unicode="&#xe605;" horiz-adv-x="0" 
d="M0 0v0v0v0v0z" />
    <glyph glyph-name="uniE900" unicode="&#xe900;" horiz-adv-x="0" 
d="M0 0v0v0v0z" />
    <glyph glyph-name="uniE901" unicode="&#xe901;" horiz-adv-x="0" 
d="M0 0v0v0v0z" />
    <glyph glyph-name="uniE902" unicode="&#xe902;" horiz-adv-x="0" 
d="M0 0v0v0v0z" />
    <glyph glyph-name="uniE903" unicode="&#xe903;" horiz-adv-x="1100" 
d="M844 276v168q0 24 -24 24h-34q-24 0 -24 -24v-168h-158q-26 0 -26 -24v-34q0 -26 26 -26h158v-168q0 -24 24 -24h34q24 0 24 24v168h160q24 0 24 26v34q0 24 -24 24h-160zM978 576h-852v258h736q116 -16 116 -136v-122zM60 898v-698q0 -200 196 -200h368q24 2 24 26v24
q0 20 -26 22h-366q-96 0 -130 128v312h848v-86q2 -28 22 -28h20q24 4 24 28v272q0 198 -196 198z" />
    <glyph glyph-name="uniF010" unicode="&#xf010;" 
d="M922 58h-82v-20q0 -22 -8 -40t-22 -32t-33 -22t-39 -8h-636q-20 0 -39 8t-33 22t-22 32t-8 40v816q0 22 8 41t22 31q14 14 33 22t39 8h448v4l2 -4l284 -306h4v-2l2 -2h-2v-240h82q20 0 39 -8t33 -22t22 -33t8 -39v-144q0 -20 -8 -39t-22 -33t-33 -22t-39 -8v0v0zM552 884
v-132q0 -20 9 -39t21 -33q14 -14 33 -22t41 -8h118zM798 610h-184q-20 0 -39 8t-33 22t-22 32t-8 40v204h-368q-22 0 -41 -8t-33 -22q-12 -14 -21 -32t-9 -40v-736q0 -20 9 -39t21 -33q14 -14 33 -22t41 -8h552q18 0 35 7t31 17q12 12 22 27t12 31h-468q-22 0 -40 8t-32 22
t-22 33t-8 39v144q0 20 8 39t22 33t32 22t40 8h470v204zM716 308h-42l-34 -56l-36 56h-40l54 -84l-60 -92h42l40 60l38 -60h44l-60 90zM546 278v30h-140v-30h52v-146h36v146h52zM872 308h-138v-30h52v-146h34v146h52v30zM102 590h328v-42h-328v42zM102 752h328v-40h-328v40z
M102 834h328v-40h-328v40zM308 630h-206v42h206v-42zM226 466h-124v42h124v-42z" />
    <glyph glyph-name="uniF011" unicode="&#xf011;" 
d="M934 -64l-88 244v690q0 20 7 36t19 28t28 19t34 7q20 0 36 -7t28 -19t19 -28t7 -36v-690zM934 44l46 148v12h-90v-12zM980 872q0 8 -4 16t-10 16q-6 6 -14 9t-18 3q-8 0 -16 -3t-14 -11q-6 -6 -10 -14t-4 -16v-46h90v46zM890 782v-534h90v534h-90zM712 -64h-622
q-20 0 -36 7t-28 19t-19 28t-7 36v844q0 20 7 36t19 28t28 19t36 7h430l274 -296v-8l8 -8v-624q0 -18 -7 -34t-19 -28t-29 -19t-35 -7v0v0zM534 878v-162q0 -10 4 -18t10 -14t14 -10t16 -4h152zM756 626h-178q-18 0 -34 7t-28 19t-19 28t-7 36v200h-400q-10 0 -18 -4
t-14 -10t-10 -14t-4 -18v-844q0 -10 4 -18t10 -14t14 -10t18 -4h622q10 0 18 4t14 10t9 14t3 18v600zM156 226h490v-46h-490v46zM156 358h490v-44h-490v44zM156 492h222v-44h-222v44zM156 626h222v-44h-222v44z" />
    <glyph glyph-name="uniF012" unicode="&#xf012;" 
d="M990 642l-344 -344l-250 -94l94 250l344 346q12 14 28 20t34 6q16 0 33 -6t29 -20l32 -32q12 -12 19 -29t7 -33q0 -18 -7 -34t-19 -30v0v0zM472 280l150 56l10 8l-94 96l-10 -10zM568 470l94 -94l234 236l-94 94zM958 738l-30 32q-8 6 -16 9t-16 3t-16 -3t-16 -9l-30 -32
l92 -94l32 32q6 6 10 14t4 16q0 10 -4 18t-10 14v0v0zM154 180v46h218l-18 -46h-200zM404 314h-250v44h268zM154 626h222v-44h-222v44zM376 448h-222v44h222v-44zM640 226v-46h-214l118 46h96zM530 878v-162q0 -10 3 -18t9 -14t14 -10t18 -4h68l-44 -44h-24q-18 0 -34 7
t-28 19t-19 28t-7 36v200h-398q-8 0 -16 -4t-14 -10t-10 -14t-4 -18v-844q0 -10 4 -18t10 -14t14 -10t16 -4h618q10 0 18 4t14 10t9 14t3 18v312l44 46v-358q0 -20 -7 -36t-19 -28t-28 -19t-34 -7h-618q-18 0 -34 7t-28 19t-19 28t-7 36v844q0 20 7 36t19 28t28 19t34 7h428
l198 -216l-30 -32z" />
    <glyph glyph-name="uniF013" unicode="&#xf013;" 
d="M456 800l-424 -520q-12 -12 -18 -28t-6 -32t6 -31t18 -27q12 -14 26 -20t30 -6t31 6t25 20l368 458l366 -460q12 -12 27 -18t31 -6t30 6t26 18q12 14 18 29t6 31t-6 32t-18 28l-422 520q-12 12 -27 18t-31 6q-14 0 -29 -6t-27 -18v0v0z" />
    <glyph glyph-name="uniF014" unicode="&#xf014;" 
d="M456 160l-424 520q-12 12 -18 28t-6 32t6 31t18 27q12 14 26 20t30 6t31 -6t25 -20l368 -458l366 460q12 12 27 18t31 6t30 -6t26 -18q12 -14 18 -29t6 -31t-6 -32t-18 -28l-422 -520q-12 -12 -27 -18t-31 -6q-14 0 -29 6t-27 18v0v0z" />
    <glyph glyph-name="uniF015" unicode="&#xf015;" 
d="M420 940v-656h184v656h-184zM384 192h256v-256h-256v256zM384 960h256v-704h-256v704z" />
    <glyph glyph-name="uniF017" unicode="&#xf017;" 
d="M976 156q0 -68 -68 -68h-792q-68 0 -68 68v424q0 66 68 66h792q68 0 68 -66v-424zM398 772q0 34 34 34h160q34 0 34 -34v-78h-228v78zM676 694v78q0 82 -84 82h-160q-84 0 -84 -82v-78h-232q-116 0 -116 -114v-424q0 -116 116 -116h792q116 0 116 116v424q0 114 -116 114
h-232zM566 422v50q0 26 -26 26h-56q-26 0 -26 -26v-50h-50q-28 0 -28 -26v-56q0 -26 28 -26h50v-50q0 -28 26 -28h56q26 0 26 28v50h50q28 0 28 26v56q0 26 -28 26h-50z" />
    <glyph glyph-name="uniF020" unicode="&#xf020;" 
d="M912 386q-44 -66 -122 -132q-50 -44 -168 -124q-8 -6 -102 -72l-4 -2q-190 132 -208 144q-88 64 -152 138q-68 80 -92 170q-16 56 -14 112q6 82 60 146q54 62 136 78q62 12 122 -8q74 -24 122 -86q8 -10 26 -34q2 2 4 6q42 50 44 54q56 58 136 70q150 20 238 -102
q50 -68 44 -162q-6 -104 -70 -196v0zM912 834q-114 86 -254 48q-72 -20 -126 -76l-16 -16l-8 8q-28 32 -62 52q-84 52 -182 42q-46 -6 -86 -24q-76 -34 -122 -102q-44 -64 -50 -140q-6 -96 34 -188q36 -82 110 -158q66 -70 162 -136q24 -18 74 -50q50 -36 74 -52
q4 -2 56 -42q4 2 4 4q100 70 108 76q14 10 58 40q36 26 58 42q104 74 170 154q94 112 110 240q6 60 -4 110q-24 106 -108 168v0zM616 408q40 38 40 96q0 56 -40 96q-38 38 -94 38t-96 -38q-40 -40 -40 -96q0 -58 40 -96q12 -14 28 -22q-64 -26 -98 -86q-6 -14 8 -20
q2 -2 6 -2q10 0 14 8q42 80 132 82h10q90 -2 132 -82q8 -14 22 -6q12 6 6 20q-34 60 -98 86q16 8 28 22v0z" />
    <glyph glyph-name="uniF021" unicode="&#xf021;" 
d="M14 810q-14 0 -14 -14v-18q0 -14 14 -14h996q14 0 14 14v18q0 14 -14 14h-996zM14 478q-14 0 -14 -14v-18q0 -14 14 -14h996q14 0 14 14v18q0 14 -14 14h-996zM14 146q-14 0 -14 -14v-18q0 -14 14 -14h996q14 0 14 14v18q0 14 -14 14h-996z" />
    <glyph glyph-name="uniF022" unicode="&#xf022;" 
d="M278 484h-42v124h8l18 32h-262v-32h12v-124h-12v-30h162v-12h74v12h18zM86 608h76v-24l-76 -6v30zM86 552l76 10v-26l-76 -6v22zM86 506l76 6v-28h-76v22zM272 640h202v-32l-72 -86l74 -80h-84l-28 34l-28 -34h-78l64 80l-68 76l90 -12l16 -18l32 40h-136zM0 434h476
l-26 -34h-160v-120q0 -18 -9 -21t-13 -3h-84v44l-184 -44v28l184 56v26l-184 -58v32l184 60h-184v34zM474 390l-62 -6l-76 -8q-16 -2 -23 -10t-3 -18t31 -51l27 -41h106l-26 37l-32 45q-32 45 13 10t29 2q10 2 13 1l3 -1v40zM548 640l48 -94h-48v-42h126l-92 -22l-34 -226
h110l30 248h44v-248h90l10 3q10 3 8 21v224h44l32 -248h108l-34 226l-92 22h126v42h-46l46 94h-94l-38 -94h-52v94h-108v-94h-50l-40 94h-94z" />
    <glyph glyph-name="uniF023" unicode="&#xf023;" 
d="M512 -64l-192 240l-192 400q0 80 30 150t82 122t122 82t150 30t150 -30t122 -82t82 -122t30 -150q0 -160 -192 -400zM512 832q-54 0 -100 -20t-82 -54q-34 -36 -54 -82t-20 -100t20 -100t54 -82q36 -34 82 -54t100 -20t100 20t82 54q34 36 54 82t20 100t-20 100t-54 82
q-36 34 -82 54t-100 20v0v0zM512 448q-26 0 -50 10t-40 28q-18 16 -28 40t-10 50t10 50t28 40q16 18 40 28t50 10t50 -10t40 -28q18 -16 28 -40t10 -50t-10 -50t-28 -40q-16 -18 -40 -28t-50 -10v0v0z" />
    <glyph glyph-name="uniF024" unicode="&#xf024;" 
d="M986 150q0 -44 -46 -44h-850q-44 0 -44 44v462q0 46 44 46h172l22 46q28 44 46 44h372q16 0 44 -44l24 -46h170q46 0 46 -46v-462zM792 704l-22 44q-24 46 -46 46h-416q-22 0 -46 -46l-22 -44h-150q-90 0 -90 -92v-462q0 -90 90 -90h850q92 0 92 90v462q0 92 -92 92h-148
zM382 370q0 136 136 136t136 -136t-136 -136t-136 136v0zM336 370q0 -182 182 -182t182 182q0 180 -182 180t-182 -180v0zM792 594q-14 0 -14 -14v-18q0 -14 14 -14h92q14 0 14 14v18q0 14 -14 14h-92z" />
    <glyph glyph-name="uniF025" unicode="&#xf025;" 
d="M100 836q-54 0 -54 -54v-350h48v330q0 26 26 26h826q26 0 26 -26v-662q0 -26 -26 -26h-826q-26 0 -26 26v240h250l66 82l64 -158q6 -20 26 -20q18 0 22 20l80 238l66 -140h104q24 0 24 24q0 22 -24 22h-68l-80 202q-6 20 -26 20q-18 0 -22 -22l-80 -238l-58 136
q-6 18 -24 20q-18 0 -26 -18l-78 -122h-310v-46h46v-260q0 -54 54 -54h866q54 0 54 54v702q0 54 -54 54h-866z" />
    <glyph glyph-name="uniF026" unicode="&#xf026;" 
d="M938 90q0 -22 -14 -22h-330v238q0 58 -70 58q-72 0 -72 -58v-238h-310q-32 0 -32 22v432l396 300q18 12 34 0l398 -302v-430zM548 68h-48v238q0 10 24 10t24 -10v-238zM570 858q-46 36 -92 0l-454 -344q-18 -14 -4 -34q14 -18 34 -4l8 8v-394q0 -70 80 -70h782
q60 0 60 70v394l10 -8q6 -4 14 -4q12 0 18 8q16 20 -4 34z" />
    <glyph glyph-name="uniF027" unicode="&#xf027;" 
d="M220 832l420 -384l-426 -388q-10 -10 -16 -23t-6 -27q0 -16 6 -29t18 -23q10 -10 25 -16t31 -6t30 5t26 15v0l480 440q10 10 17 23t7 29v0v0v0v0q0 16 -7 29t-17 23v0l-480 440q-12 10 -26 15t-30 5t-31 -6t-25 -16q-12 -10 -18 -23t-6 -29t8 -30t20 -24v0v0z" />
    <glyph glyph-name="uniF028" unicode="&#xf028;" 
d="M998 806l-358 -358l358 -358q6 -6 11 -13t7 -15q4 -8 6 -17t2 -19q0 -18 -7 -35t-19 -29t-29 -19t-35 -7q-10 0 -19 2t-17 6q-8 2 -15 7t-13 11v0l-358 358l-358 -358q-6 -6 -13 -11t-15 -7q-8 -4 -17 -6t-19 -2q-18 0 -35 7t-29 19t-19 29t-7 35q0 10 2 19t6 17
q2 8 7 15t11 13v0l358 358l-358 358q-6 6 -11 13t-7 15q-4 8 -6 17t-2 19q0 18 7 35t19 29t29 19t35 7q10 0 19 -2t17 -6q8 -2 15 -7t13 -11v0l358 -358l358 358q6 6 13 11t15 7q8 4 17 6t19 2q18 0 35 -7t29 -19t19 -29t7 -35q0 -10 -2 -19t-6 -17q-2 -8 -7 -15t-11 -13v0
v0v0z" />
    <glyph glyph-name="uniF029" unicode="&#xf029;" 
d="M1002 654v0l-560 -506q-10 -10 -23 -15t-29 -5t-29 5t-23 15v0l-316 286q-10 10 -16 22t-6 26q0 12 6 24t16 22q10 8 23 14t29 6q14 0 27 -6t23 -14v0l266 -240l510 460q10 10 23 15t27 5q16 0 29 -5t23 -15q10 -8 16 -20t6 -26t-6 -26t-16 -22v0v0z" />
    <glyph glyph-name="uniF030" unicode="&#xf030;" 
d="M54 544q-6 14 -14 22t-14 16q-4 8 -2 17t16 25q30 34 29 43t-13 31q-4 12 -6 25t0 25t10 24t20 22q14 10 19 21t5 23q0 10 -1 21t-1 23q2 10 11 24t29 26t56 20t90 8t117 -5t125 -13q62 -6 118 -16t96 -18v-402h-13l-33 -16q-8 -6 -22 -20t-30 -36q-16 -24 -35 -58
t-39 -86l-17 -31l-49 -51q-18 -10 -33 -33t-25 -55q-10 -34 -16 -72t-6 -78l-18 -13l-58 11q-20 12 -35 37t-19 59q-6 36 3 80t37 92q56 96 41 111l-15 15l-104 -5l-160 9q-58 16 -64 58t-6 54t18 25t8 41v0v0zM852 940h50q12 0 23 -5t19 -13t13 -18t5 -22v-326
q0 -12 -5 -23t-13 -19t-19 -12t-23 -4h-50q-12 0 -23 4t-19 12t-13 19t-5 23v326q0 12 5 22t13 18t19 13t23 5v0v0z" />
    <glyph glyph-name="uniF031" unicode="&#xf031;" 
d="M908 352q6 -14 14 -22t14 -16q4 -8 2 -17t-16 -25q-30 -34 -29 -43t13 -31q4 -12 6 -24t0 -26q-2 -12 -10 -24t-20 -22q-14 -10 -19 -21t-5 -23q0 -10 1 -21t1 -23q-2 -10 -11 -24t-29 -26t-56 -20t-90 -8t-117 5t-125 13q-62 6 -118 16t-96 18v402l13 1l33 15q8 8 22 21
t30 35q16 24 35 58t39 86l17 32l49 50q18 10 33 33t25 55q10 34 16 72t6 78l18 13l58 -11q20 -12 35 -37t19 -59q6 -36 -3 -79t-37 -93q-56 -96 -41 -111l15 -15l104 5l160 -9q58 -16 64 -58t6 -54t-18 -25t-8 -41v0v0zM110 -44h-50q-12 0 -23 5t-19 13t-13 18t-5 22v326
q0 12 5 23t13 19t19 12t23 4h50q12 0 23 -4t19 -12t13 -19t5 -23v-326q0 -12 -5 -22t-13 -18t-19 -13t-23 -5v0v0z" />
    <glyph glyph-name="uniF032" unicode="&#xf032;" 
d="M214 414h-198q-6 0 -11 5t-5 13q0 6 5 11t11 5h198q8 0 13 -5t5 -11q0 -8 -5 -13t-13 -5v0v0zM1008 414h-198q-8 0 -13 5t-5 13q0 6 5 11t13 5h198q6 0 11 -5t5 -11q0 -8 -5 -13t-11 -5v0v0zM162 82q-4 0 -7 1t-5 3q-4 4 -4 11t4 13l140 140q4 4 11 4t13 -4q4 -6 4 -12
t-4 -12l-140 -140q-4 -2 -7 -3t-5 -1v0v0zM722 642q-2 0 -6 1t-6 3q-4 6 -4 13t4 11l140 140q6 4 13 4t11 -4t4 -11t-4 -13l-140 -140q-2 -2 -5 -3t-7 -1v0v0zM496 -64q-8 0 -13 5t-5 11v198q0 8 5 13t13 5q6 0 11 -5t5 -13v-198q0 -6 -5 -11t-11 -5v0v0zM496 728
q-8 0 -13 5t-5 13v198q0 6 5 11t13 5q6 0 11 -5t5 -11v-198q0 -8 -5 -13t-11 -5v0v0zM862 82q-2 0 -5 1t-7 3l-140 140q-4 6 -4 12t4 12q6 4 13 4t11 -4l140 -140q4 -6 4 -13t-4 -11q-2 -2 -5 -3t-7 -1v0v0zM302 642q-4 0 -7 1t-5 3l-140 140q-4 6 -4 13t4 11t11 4t13 -4
l140 -140q4 -4 4 -11t-4 -13q-2 -2 -6 -3t-6 -1v0v0z" />
    <glyph glyph-name="uniF033" unicode="&#xf033;" 
d="M952 -34q-6 -8 -15 -8t-15 8l-136 142q8 6 16 13t16 15l134 -140q6 -6 6 -15t-6 -15v0v0zM618 92q-50 0 -92 19t-74 53q-32 32 -50 77t-18 95q0 52 18 96t50 78t74 53t92 19q48 0 91 -19t75 -53q30 -34 49 -78t19 -96q0 -50 -19 -95t-49 -77q-32 -34 -75 -53t-91 -19v0v0
zM618 538q-40 0 -75 -16t-61 -44q-26 -26 -41 -63t-15 -79q0 -40 15 -77t41 -63q26 -28 61 -44t75 -16t74 16t60 44q26 26 42 63t16 77q0 42 -16 79t-42 63q-26 28 -60 44t-74 16v0v0zM150 180v46h212q4 -12 10 -23t12 -23h-234zM150 314v44h192q0 -4 -1 -10t-1 -12
q0 -4 1 -10t1 -12h-192zM150 626h212v-44h-212v44zM362 448v0h-212v44h212v-44zM724 626h-170q-18 0 -34 7t-26 19q-12 12 -19 28t-7 36v200h-382q-10 0 -18 -4t-12 -10q-6 -6 -10 -14t-4 -18v-844q0 -10 4 -18t10 -14q4 -6 12 -10t18 -4h596q8 0 16 4t14 10t9 14t3 18v44
q6 2 13 5t13 7l16 -18v-38q0 -20 -6 -36t-18 -28t-27 -19t-33 -7h-596q-18 0 -34 7t-28 19q-10 12 -17 28t-7 36v844q0 20 7 36t17 28q12 12 28 19t34 7h412l262 -296l-2 -8l8 -8v-68l-20 12l-22 12v22zM510 878v-162q0 -10 4 -18t10 -14t13 -10t17 -4h144z" />
    <glyph glyph-name="uniF034" unicode="&#xf034;" 
d="M736 860h-448v34h448v-34zM1024 64h-1024v830h192v-34h-160v-762h960v762h-160v34h192v-830zM304 794h-128v166h128v-166zM208 828h64v98h-64v-98zM848 794h-128v166h128v-166zM752 828h64v98h-64v-98zM336 462h-192v200h192v-200zM176 496h128v132h-128v-132zM336 164
h-192v198h192v-198zM176 196h128v134h-128v-134zM880 462h-192v200h192v-200zM720 496h128v132h-128v-132zM880 164h-192v198h192v-198zM720 196h128v134h-128v-134zM608 462h-192v200h192v-200zM448 496h128v132h-128v-132zM608 164h-192v198h192v-198zM448 196h128v134
h-128v-134zM1008 728h-992v32h992v-32z" />
    <glyph glyph-name="uniF036" unicode="&#xf036;" 
d="M958 320h-892q-14 0 -26 8t-20 20q-10 14 -15 31t-5 37t5 37t15 31q8 12 20 20t26 8h892q14 0 26 -8t20 -20q10 -14 15 -31t5 -37t-5 -37t-15 -31q-8 -12 -20 -20t-26 -8v0v0z" />
    <glyph glyph-name="uniF037" unicode="&#xf037;" horiz-adv-x="192" 
d="M0 960v-704h192v704h-192zM0 144h192v-208h-192v208z" />
    <glyph glyph-name="uniF039" unicode="&#xf039;" 
d="M958 382h-380v-380q0 -14 -5 -26t-13 -20q-10 -10 -22 -15t-26 -5t-26 5t-22 15q-8 8 -13 20t-5 26v380h-380q-14 0 -26 5t-20 13q-10 10 -15 22t-5 26t5 26t15 22q8 8 20 13t26 5h380v380q0 14 5 26t13 20q10 10 22 15t26 5t26 -5t22 -15q8 -8 13 -20t5 -26v-380h380
q14 0 26 -5t20 -13q10 -10 15 -22t5 -26t-5 -26t-15 -22q-8 -8 -20 -13t-26 -5v0v0z" />
    <glyph glyph-name="uniF040" unicode="&#xf040;" horiz-adv-x="1334" 
d="M76 -24v776l340 -318l-274 -370l338 310l186 -174l182 170l334 -306l-270 366l346 324v-778q0 -16 -11 -27t-25 -11h-1108q-16 0 -27 11t-11 27v0zM124 796h1084l-542 -506z" />
    <glyph glyph-name="uniF041" unicode="&#xf041;" horiz-adv-x="976" 
d="M874 620q0 128 -94 220t-228 92q-132 0 -226 -92t-94 -220q0 -46 12 -88q-202 -158 -132 -346q54 4 98 84q22 -78 74 -138q-84 -24 -84 -74q0 -86 162 -86q96 0 144 44q26 -4 46 -4t48 4q46 -44 142 -44q164 0 164 86q0 50 -86 74q54 62 74 138q44 -80 100 -84
q68 188 -134 346q14 44 14 88v0z" />
    <glyph glyph-name="uniF042" unicode="&#xf042;" horiz-adv-x="934" 
d="M628 164q0 126 124 126t124 -126q0 -124 -124 -124t-124 124v0zM58 430q0 126 124 126t124 -126t-124 -126t-124 126v0zM876 740q0 -126 -124 -126t-124 126t124 126t124 -126v0zM634 304l-270 108l2 18q0 20 -6 40l276 128q52 -42 116 -42q182 0 182 184t-182 184
t-182 -184q0 -32 12 -66l-268 -116q-54 56 -132 56q-182 0 -182 -184t182 -184q90 0 146 74l248 -108q-6 -26 -6 -48q0 -184 182 -184t182 184q0 186 -182 186q-66 0 -118 -46v0z" />
    <glyph glyph-name="uniF043" unicode="&#xf043;" horiz-adv-x="1086" 
d="M682 290l6 6h-4q86 60 126 174l6 -2q46 -14 64 62q20 76 -24 88h-18q18 324 -296 324q-324 0 -294 -340q-10 4 -18 0q-46 -12 -26 -88q18 -74 64 -62q6 2 12 6q40 -106 120 -162h-4q68 -76 0 -106q-322 -28 -376 -170v-62h746v106h-94q-80 0 -92 70q-14 46 102 156v0z
M952 64v-106h112v62q-8 22 -28 44h-84zM1022 118q26 0 26 26q0 24 -26 24h-144v134q0 26 -26 26t-26 -26v-134h-144q-26 0 -26 -24q0 -26 26 -26h144v-134q0 -26 26 -26q28 0 28 26l-2 134h144z" />
    <glyph glyph-name="uniF044" unicode="&#xf044;" horiz-adv-x="1076" 
d="M858 528v-490q0 -32 -32 -32h-706q-32 0 -32 32v682q0 30 32 30h496l50 46h-546q-80 0 -80 -76v-682q0 -78 80 -78h706q80 0 80 78v532zM316 372q-18 -58 -48 -164q-6 -18 12 -12q176 48 170 46q18 6 6 18q-2 2 -60 58t-62 60q-12 12 -18 -6v0zM350 406l136 -132l452 440
l-136 130zM950 944q-22 22 -46 0l-34 -34l136 -132l34 34q24 22 0 44z" />
    <glyph glyph-name="uniF045" unicode="&#xf045;" horiz-adv-x="1000" 
d="M962 798q-150 -414 0 -640q-524 182 -930 0q138 432 0 640q444 -190 930 0v0z" />
    <glyph glyph-name="uniF046" unicode="&#xf046;" horiz-adv-x="1000" 
d="M40 172h912v556h-912v-556z" />
    <glyph glyph-name="uniF047" unicode="&#xf047;" horiz-adv-x="1006" 
d="M258 192v584h474v-584h-474zM456 80q0 38 40 38q38 0 38 -38q0 -40 -38 -40q-40 0 -40 40v0zM258 934q-78 0 -78 -78v-818q0 -78 78 -78h474q78 0 78 78v818q0 78 -78 78h-474z" />
    <glyph glyph-name="uniF048" unicode="&#xf048;" horiz-adv-x="1104" 
d="M516 918v-574l-200 194l-44 -44l244 -238l32 -18l32 18l244 238l-46 44l-198 -194v574h-64zM992 362v-310h-888v310h-64v-370h1014v370h-62z" />
    <glyph glyph-name="uniF049" unicode="&#xf049;" horiz-adv-x="1200" 
d="M1100 458q-44 42 -104 42t-104 -42q-42 -44 -42 -104t42 -104q44 -42 104 -42t104 42q42 44 42 104t-42 104v0zM700 458q-44 42 -104 42t-104 -42q-42 -44 -42 -104t42 -104q44 -42 104 -42t104 42q42 44 42 104t-42 104v0zM300 458q-42 42 -104 42q-60 0 -102 -42
q-44 -44 -44 -104t44 -104q42 -42 102 -42q62 0 104 42q42 44 42 104t-42 104v0z" />
    <glyph glyph-name="uniF050" unicode="&#xf050;" horiz-adv-x="1068" 
d="M862 514q-24 18 -38 48q-70 -82 -142 -50q-36 18 -58 50q-56 -80 -124 -48q-34 16 -56 48q-62 -86 -130 -52q-34 18 -56 52q-72 -86 -122 -62q-38 18 -44 68q-4 34 66 192h748v-4q84 -156 54 -204q-48 -72 -98 -38v0zM884 -66h-224v278h-254v-278h-202v530q24 18 50 54
q20 -42 52 -62q66 -42 134 62q20 -40 54 -60q68 -38 130 60q18 -42 54 -62q68 -40 144 62q26 -40 62 -56v-528zM630 -66h-196v242h196v-242zM940 800h-810v-28h-2q-78 -194 -74 -236q4 -34 32 -66q36 -42 82 -26v-544h748v556q46 0 84 62q32 58 -60 248v34z" />
    <glyph glyph-name="uniF051" unicode="&#xf051;" horiz-adv-x="1202" 
d="M954 198l164 284h-116q-12 176 -140 298q-130 122 -308 122q-186 0 -318 -132t-132 -318q0 -188 132 -318q132 -132 318 -132q166 0 292 108l-60 76q-100 -86 -232 -86q-146 0 -248 102q-104 104 -104 250t104 248q102 104 248 104q138 0 238 -94q100 -92 112 -228h-114z
" />
    <glyph glyph-name="uniF052" unicode="&#xf052;" horiz-adv-x="986" 
d="M568 708h-334v-54h334v54zM624 908h-562v-846h272v54h-218v738h486l120 -120v-140h52v162zM240 454h140v54h-140v-54zM510 192q-50 48 -50 120q0 70 50 120q48 50 118 50t120 -50q48 -50 48 -120q0 -72 -48 -120q-50 -50 -120 -50t-118 50v0zM792 170q50 62 50 142
q0 90 -62 154q-62 62 -152 62q-88 0 -152 -62q-62 -64 -62 -154t62 -154q64 -64 152 -64q68 0 124 40l134 -136l38 38zM240 252h102v52h-102v-52z" />
    <glyph glyph-name="uniF053" unicode="&#xf053;" horiz-adv-x="1240" 
d="M808 2h-500l-42 70h542q122 0 210 88q86 88 86 212t-86 212q-88 88 -210 88h-580l106 -62l56 -32q2 0 2 -2q8 -4 8 -12q0 -4 -2 -8v0v0l-16 -26v-2q-4 -8 -14 -8q-4 0 -6 2h-2l-266 152q0 2 -2 2q-6 4 -6 12h-2l-14 28q-2 4 -2 8q0 8 6 12q2 2 4 2l56 32l208 120q2 0 2 2
h8q8 0 14 -6v-2l14 -26v-2q2 -2 2 -6q0 -8 -6 -14q-2 0 -4 -2l-56 -32l-104 -60h596q152 0 260 -108q106 -108 106 -262t-106 -262q-108 -108 -260 -108v0z" />
    <glyph glyph-name="uniF054" unicode="&#xf054;" horiz-adv-x="1414" 
d="M246 504l286 294q38 40 0 80q-40 40 -78 0l-378 -388q-16 -16 -16 -40q0 -26 16 -42l378 -388q38 -40 78 0q38 40 0 80l-286 294h1060q54 0 54 56q0 54 -54 54h-1060z" />
    <glyph glyph-name="uniF055" unicode="&#xf055;" horiz-adv-x="1212" 
d="M778 192v418q0 48 -48 48t-48 -48v-418q0 -48 48 -48t48 48v0zM538 192v418q0 48 -48 48t-48 -48v-418q0 -48 48 -48t48 48v0zM922 144q0 -48 -48 -48h-530q-48 0 -48 48v562h626v-562zM682 802v48q0 50 -48 50h-48q-48 0 -48 -50v-48h-410q-48 0 -48 -48t48 -48h72v-610
q0 -96 96 -96h626q98 0 98 96v610h72q48 0 48 48t-48 48h-410z" />
    <glyph glyph-name="uniF057" unicode="&#xf057;" horiz-adv-x="1100" 
d="M816 374q0 -4 -3 -7t-7 -3h-298q-4 0 -7 3t-3 7v347q0 5 3 7q3 3 7 3h30q4 0 7 -3q2 -2 2 -7v-307h259q4 0 7 -3t3 -7v-30zM352 931q-88 -38 -156 -107q-69 -70 -106 -160q-39 -94 -39 -197q0 -99 39 -190q37 -87 106 -156q68 -68 156 -105q91 -39 189 -39q103 0 197 39
q90 37 160 105q69 68 107 156q39 91 39 190q0 103 -39 197q-38 90 -107 160q-69 69 -160 107q-93 39 -197 39q-99 0 -189 -39z" />
    <glyph glyph-name="uniF058" unicode="&#xf058;" horiz-adv-x="1207" 
d="M538 268q-3 -3 -8 -3q-4 0 -7 3l-166 172q-4 4 -1 8l24 32q3 5 7 2l135 -104q8 -6 16 0l334 278q4 4 7 0l23 -22q4 -4 0 -8zM410 950q-92 -39 -163 -111q-71 -73 -110 -166q-40 -98 -40 -205q0 -103 40 -198q39 -91 110 -162t163 -110q94 -40 197 -40q107 0 205 40
q94 39 166 110t111 162q41 95 41 198q0 107 -41 205q-39 94 -111 166t-166 111q-97 41 -205 41q-103 0 -197 -41z" />
    <glyph glyph-name="uniF059" unicode="&#xf059;" horiz-adv-x="1207" 
d="M493 645q-14 14 -14 34t14 35q15 14 35 14t34 -14q15 -15 15 -35t-15 -34q-14 -15 -34 -15t-35 15zM562 245q0 -4 -3 -7t-7 -3h-48q-5 0 -7 3q-3 3 -3 7v322q0 4 3 7q2 3 7 3h48q4 0 7 -3t3 -7v-322zM335 943q-86 -37 -153 -105t-104 -157q-38 -92 -38 -193
q0 -97 38 -187q37 -86 104 -153t153 -104q90 -38 187 -38q101 0 193 38q89 37 157 104t105 153q39 89 39 187q0 101 -39 193q-37 89 -105 157t-157 105q-92 39 -193 39q-97 0 -187 -39z" />
    <glyph glyph-name="uniF060" unicode="&#xf060;" horiz-adv-x="1207" 
d="M906 835q140 -141 140 -340q0 -200 -140 -341q-142 -140 -341 -140t-340 140q-140 141 -140 341q0 199 140 340q141 140 340 140t341 -140zM566 540l-156 162q-21 22 -44 0t-2 -45l156 -162l-162 -156q-22 -21 0 -44t45 -2l162 156l156 -162q21 -22 44 0t2 45l-156 162
l160 156q24 21 2 44q-23 23 -45 2z" />
    <glyph glyph-name="uniF061" unicode="&#xf061;" horiz-adv-x="1207" 
d="M502 313q-11 10 -11 25t11 25q10 11 25 11t25 -11q11 -10 11 -25t-11 -25q-10 -11 -25 -11t-25 11zM552 670q5 0 8 -3q2 -3 2 -7l-11 -236q0 -5 -5 -5h-38q-5 0 -5 5l-12 236q0 4 3 7t7 3h51zM92 847v-333q0 -204 146 -350q118 -118 289 -164q170 46 289 164
q146 146 146 350v333q-293 93 -435 125q-142 -32 -435 -125z" />
    <glyph glyph-name="uniF062" unicode="&#xf062;" horiz-adv-x="1207" 
d="M580 591h-138v-28h55v-302h-55v-28h193v28h-55v330zM563 739q17 -15 17 -38q0 -24 -17 -39q-15 -17 -39 -17q-22 0 -38 17q-16 15 -16 39q0 23 16 38q16 17 38 17q24 0 39 -17zM252 208q-112 114 -112 272q0 160 112 274q113 112 272 112q160 0 272 -112
q114 -114 114 -274q0 -158 -114 -272q-112 -112 -272 -112q-159 0 -272 112zM215 790q-130 -131 -130 -323q0 -173 130 -298q133 -128 324 -128q171 0 298 128q128 126 128 298q0 190 -128 323q-125 131 -298 131q-194 0 -324 -131z" />
    <glyph glyph-name="uniF063" unicode="&#xf063;" horiz-adv-x="1207" 
d="M75 483q-11 12 -1 24l21 27q9 13 23 4l186 -127q26 -17 51 3l495 408q12 10 23 -1l11 -11q11 -11 0 -23l-531 -539q-23 -23 -45 -1z" />
    <glyph glyph-name="uniF064" unicode="&#xf064;" horiz-adv-x="1207" 
d="M761 308q-3 -3 -7 -3q-5 0 -8 3l-141 141l-141 -141q-3 -3 -8 -3q-4 0 -7 3l-22 22q-3 3 -3 7t3 7l142 142l-142 141q-3 3 -3 7q0 5 3 8l22 21q3 3 7 3q5 0 8 -3l141 -141l141 141q3 3 8 3q4 0 7 -3l22 -21q3 -3 3 -8q0 -4 -3 -7l-142 -141l142 -142q3 -3 3 -7t-3 -7z
M403 958q-91 -40 -162 -112q-70 -72 -109 -166q-40 -98 -40 -206q0 -103 40 -198q39 -91 109 -162q71 -71 162 -111q94 -40 196 -40q106 0 203 40q93 39 165 111q71 71 111 162q40 95 40 198q0 108 -40 206q-40 94 -111 166q-72 72 -165 112q-97 41 -203 41q-103 0 -196 -41
z" />
    <glyph glyph-name="uniF065" unicode="&#xf065;" horiz-adv-x="1207" 
d="M762 262q87 88 87 212t-87 211q-88 87 -211 87q-124 0 -212 -87q-87 -87 -87 -211t87 -212q88 -87 212 -87q123 0 211 87zM787 184q-103 -84 -236 -84q-155 0 -265 109q-109 110 -109 265t109 264q110 109 265 109q154 0 264 -109t110 -264q0 -134 -85 -236l271 -272
l-53 -53z" />
    <glyph glyph-name="uniF066" unicode="&#xf066;" horiz-adv-x="1207" 
d="M648 724l-455 -548h911z" />
    <glyph glyph-name="uniF067" unicode="&#xf067;" horiz-adv-x="1206" 
d="M800 436v0l-302 302q-15 15 -30 0t0 -30l287 -287l-287 -286q-15 -15 0 -30q15 -16 30 0l302 301q6 7 6 15q0 9 -6 15v0z" />
    <glyph glyph-name="uniF068" unicode="&#xf068;" horiz-adv-x="1207" 
d="M220 617l441 -531l441 531h-882z" />
  </font>
</defs>
</svg>
